<svg xmlns="http://www.w3.org/2000/svg" width="18.242" height="18.252" viewBox="0 0 18.242 18.252"><defs><style>.a{fill:#707070;}</style></defs><path class="a" d="M77.213,81.9a.67.67,0,0,1-.315-.081l-4.915-2.726L67.057,81.8a.651.651,0,0,1-.956-.676l.956-5.8-4-4.116a.653.653,0,0,1,.357-1.1l3.156-.543a.652.652,0,0,1,.221,1.286l-1.937.333,3.367,3.465a.649.649,0,0,1,.175.561l-.792,4.8,4.064-2.235a.651.651,0,0,1,.631,0l4.057,2.249-.774-4.8a.651.651,0,0,1,.179-.561l3.353-3.426-4.593-.708a.649.649,0,0,1-.49-.368l-2.021-4.327-2.039,4.313a.653.653,0,0,1-1.181-.557l2.631-5.57a.653.653,0,0,1,.589-.375h0a.649.649,0,0,1,.589.375l2.459,5.265,5.507.851a.651.651,0,0,1,.364,1.1l-4.011,4.1.935,5.8a.658.658,0,0,1-.27.638A.582.582,0,0,1,77.213,81.9Z" transform="translate(-62.872 -63.645)"/></svg>