<svg xmlns="http://www.w3.org/2000/svg" width="96.279" height="106.5" viewBox="0 0 96.279 106.5"><defs><style>.a,.b{fill:#ffe292;}.a,.c,.g{stroke:#555;}.a,.g{stroke-linecap:round;}.a{stroke-linejoin:round;stroke-width:5px;}.c,.d,.e,.g{fill:none;}.c,.e,.g{stroke-width:8px;}.d,.e{stroke:#ffc32c;}.d{stroke-width:9px;}.f{fill:#555;font-size:20px;font-family:ProFontWindows-Bold, ProFontWindows;font-weight:700;letter-spacing:-0.1em;}</style></defs><g transform="translate(2.527 2.454)"><path class="a" d="M27.555-11.31c1.516,0,10.082-6.041,16.445-6.743,8.028-1.441,10.239,5.094,15.3,5.646,7.267.122,5.448-6.458,12.622-2.193,1.806,3.234-7.892,18.479-5.89,19.422,15.228,17.839,23.681,27.732,23.681,44.29C89.714,72.335,68.3,83.286,44,83.286S2.5,72.335,2.5,49.112c-.883-7.039,4.7-19.566,9.555-27.686a150.345,150.345,0,0,0,9.934-16.6c2.14-1.2-10.762-16.29-8.074-17.229" transform="translate(-2.404 18.26)"/><path class="b" d="M-.251,1.415,15.7,1.229a83.815,83.815,0,0,1-.97,16.191L0,17Z" transform="matrix(0.799, -0.602, 0.602, 0.799, 62.99, 42.183)"/><line class="c" x1="39" y2="39" transform="translate(48.096 32.76)"/><path class="d" d="M0,0A33.724,33.724,0,0,0,8.778,2.51,48.912,48.912,0,0,0,19,2.51" transform="translate(25.096 26.76)"/><line class="e" x2="25" y2="24.486" transform="translate(23.096 52.76)"/><text class="f" transform="translate(21.131 59.285) rotate(45)"><tspan x="0" y="0">help</tspan></text><line class="g" y1="23" x2="23" transform="translate(65.096 31.76)"/></g></svg>