<svg xmlns="http://www.w3.org/2000/svg" width="15" height="15.218" viewBox="0 0 15 15.218"><defs><style>.a{fill:#515151;}</style></defs><path class="a" d="M71.489,63.989a7.61,7.61,0,1,0,7.5,7.609A7.563,7.563,0,0,0,71.489,63.989Zm0,14.128A6.52,6.52,0,1,1,77.915,71.6,6.481,6.481,0,0,1,71.489,78.117Z" transform="translate(-63.989 -63.989)"/><path class="a" d="M451.9,260.305h-2.717v-3.8a.544.544,0,1,0-1.087,0v4.348a.542.542,0,0,0,.544.543H451.9a.545.545,0,1,0,0-1.09Z" transform="translate(-441.703 -252.696)"/></svg>